<svg xmlns="http://www.w3.org/2000/svg" viewBox="0 0 400 400">
<rect width="400" height="400" fill="#ECEAE1"/>
<circle cx="200" cy="200" r="150" fill="none" stroke="#D8D4C4" stroke-width="2" stroke-dasharray="3 7"/>
<path d="M200,120 C150,120 130,160 130,200 C130,260 165,300 200,300 C235,300 270,260 270,200 C270,160 250,120 200,120 Z" fill="#16242E"/>
<circle cx="170" cy="195" r="7" fill="#ECEAE1"/>
<circle cx="230" cy="195" r="7" fill="#ECEAE1"/>
<path d="M175,235 Q200,255 225,235" stroke="#ECEAE1" stroke-width="5" fill="none" stroke-linecap="round"/>
<g stroke="#E2963A" stroke-width="3">
  <line x1="70" y1="90" x2="130" y2="150"/>
  <line x1="330" y1="90" x2="270" y2="150"/>
  <line x1="60" y1="280" x2="128" y2="250"/>
  <line x1="340" y1="280" x2="272" y2="250"/>
</g>
<g fill="#2F6F62">
  <circle cx="70" cy="90" r="8"/>
  <circle cx="330" cy="90" r="8"/>
  <circle cx="60" cy="280" r="8"/>
  <circle cx="340" cy="280" r="8"/>
</g>
<g fill="#C1502E">
  <circle cx="130" cy="150" r="5"/>
  <circle cx="270" cy="150" r="5"/>
  <circle cx="128" cy="250" r="5"/>
  <circle cx="272" cy="250" r="5"/>
</g>
</svg>